<svg xmlns="http://www.w3.org/2000/svg" viewBox="0 0 1254 1254" fill="currentColor" role="img" aria-label="rainsday cloud-rain logo with wordmark">
  <title>rainsday cloud-rain logo with wordmark</title>
  <g transform="translate(0.000000,1254.000000) scale(0.100000,-0.100000)">
    <path d="M6065 9359 c-182 -17 -392 -89 -536 -184 -41 -27 -115 -89 -164 -139
-142 -142 -222 -288 -269 -486 l-22 -95 -90 -7 c-302 -22 -570 -225 -680 -513
-87 -231 -65 -492 61 -706 106 -182 278 -309 500 -371 78 -22 94 -22 764 -26
l684 -3 476 474 c262 261 486 480 498 486 31 16 89 14 123 -4 55 -28 77 -114
46 -173 -8 -15 -175 -187 -370 -382 -196 -195 -356 -363 -356 -372 0 -10 10
-20 25 -24 13 -3 212 -4 442 -1 386 4 424 6 502 26 271 69 484 281 563 558 30
106 32 325 4 423 -89 306 -305 520 -599 590 -60 15 -117 20 -214 20 l-133 0
-5 28 c-22 107 -53 201 -94 287 -163 340 -475 550 -883 594 -107 12 -154 12
-273 0z m311 -70 c458 -63 799 -384 874 -822 7 -37 16 -70 21 -73 5 -3 82 -7
172 -8 132 -3 176 -7 237 -25 196 -58 364 -194 452 -366 77 -151 105 -288 87
-440 -19 -175 -89 -323 -207 -443 -80 -81 -164 -132 -287 -175 l-90 -32 -387
-3 c-214 -2 -388 0 -388 5 0 4 148 156 329 338 295 295 331 335 341 375 39
146 -86 274 -234 239 -49 -11 -66 -26 -527 -486 l-475 -474 -685 3 c-679 4
-685 4 -759 26 -199 61 -354 190 -450 374 -56 107 -80 207 -80 335 0 133 20
225 76 341 80 166 241 308 415 366 84 28 185 45 266 46 47 0 53 3 57 23 50
277 137 454 297 601 153 142 371 244 584 275 87 12 272 13 361 0z"/>
<path d="M5007 6322 c-210 -210 -276 -282 -271 -295 16 -43 50 -17 323 257
275 275 299 306 246 314 -15 2 -96 -73 -298 -276z"/>
<path d="M5681 6327 c-274 -275 -298 -306 -247 -315 27 -6 568 535 564 563 -8
54 -41 27 -317 -248z"/>
<path d="M6357 6322 c-210 -210 -276 -282 -271 -295 16 -43 50 -17 323 257
275 275 299 306 246 314 -15 2 -96 -73 -298 -276z"/>
<path d="M7597 5333 c-4 -3 -7 -84 -7 -180 0 -95 -4 -173 -8 -173 -5 0 -21 14
-38 31 -45 48 -98 69 -180 69 -163 0 -274 -121 -262 -287 11 -152 117 -253
266 -253 77 0 126 17 178 63 88 77 89 81 92 421 2 238 0 301 -10 307 -16 11
-23 11 -31 2z m-109 -336 c62 -41 96 -106 96 -186 1 -82 -28 -141 -92 -186
-40 -27 -51 -30 -121 -30 -68 0 -83 3 -119 27 -22 15 -54 49 -69 75 -54 92
-31 225 50 287 50 38 76 46 148 43 52 -2 75 -8 107 -30z"/>
<path d="M4594 5292 c-19 -13 -23 -39 -8 -61 26 -36 74 -21 74 24 0 36 -37 57
-66 37z"/>
<path d="M8331 5074 c-169 -45 -248 -233 -166 -393 47 -93 127 -140 236 -141
73 0 154 32 188 76 10 13 21 24 24 24 3 0 7 -21 9 -47 3 -40 6 -48 23 -48 19
0 20 8 23 168 2 146 0 173 -16 210 -28 62 -67 103 -125 131 -68 32 -129 38
-196 20z m168 -63 c126 -65 160 -235 68 -346 -79 -97 -231 -101 -319 -8 -101
107 -65 300 67 359 46 20 139 17 184 -5z"/>
<path d="M2756 5065 c-3 -10 -6 -126 -5 -260 0 -198 3 -246 15 -255 7 -7 21
-10 29 -6 13 4 15 34 15 186 0 203 4 219 67 267 30 23 48 28 110 32 69 3 74 5
71 25 -3 18 -11 21 -53 24 -75 5 -111 -5 -151 -43 -20 -19 -38 -35 -40 -35 -1
0 -4 17 -6 38 -2 29 -8 38 -24 40 -13 2 -24 -4 -28 -13z"/>
<path d="M3662 5054 c-92 -46 -142 -132 -142 -244 0 -161 106 -270 262 -270
81 0 143 25 188 76 l30 35 0 -51 c0 -55 17 -73 46 -49 24 19 16 316 -10 374
-59 135 -238 197 -374 129z m229 -47 c24 -13 57 -43 74 -66 40 -57 48 -166 17
-227 -42 -81 -110 -124 -197 -124 -147 0 -247 141 -205 290 13 46 63 106 108
130 54 28 146 27 203 -3z"/>
<path d="M4604 5068 c-5 -7 -9 -124 -10 -260 -1 -258 2 -279 41 -264 13 5 15
40 13 268 -3 235 -5 263 -20 266 -9 2 -20 -3 -24 -10z"/>
<path d="M5215 5068 c-3 -7 -4 -128 -3 -268 3 -247 4 -255 23 -255 19 0 20 8
25 180 6 205 13 227 82 273 36 23 51 27 118 27 68 0 81 -3 112 -27 63 -48 72
-81 74 -268 1 -205 -1 -192 27 -188 22 3 22 4 22 193 0 184 -1 191 -25 235
-14 24 -45 58 -68 75 -39 26 -53 30 -126 33 -89 4 -139 -12 -180 -57 -27 -30
-34 -26 -38 16 -2 27 -8 39 -21 41 -9 2 -19 -3 -22 -10z"/>
<path d="M6295 5057 c-82 -46 -96 -141 -30 -203 32 -30 48 -36 185 -69 79 -19
114 -49 114 -99 0 -67 -61 -101 -170 -94 -52 3 -72 10 -109 36 -52 36 -70 40
-80 15 -4 -13 3 -26 26 -45 72 -61 216 -78 299 -35 79 39 107 107 76 182 -18
41 -68 69 -163 90 -128 29 -163 53 -163 113 0 49 39 76 119 80 73 4 110 -8
145 -47 25 -27 56 -28 56 0 0 27 -52 74 -99 88 -65 19 -160 14 -206 -12z"/>
<path d="M9093 5073 c-7 -3 -13 -11 -13 -18 0 -7 50 -119 110 -248 61 -129
110 -239 110 -244 0 -5 -25 -65 -55 -133 -54 -122 -58 -146 -19 -138 14 2 46
63 115 218 53 118 128 287 167 375 40 87 72 164 72 171 0 15 -31 27 -41 17 -6
-7 -69 -144 -174 -381 -16 -35 -31 -59 -35 -55 -3 4 -51 103 -106 220 -54 117
-103 214 -109 216 -5 2 -16 2 -22 0z"/>
<path d="M9836 4614 c-23 -23 -20 -51 9 -70 23 -15 27 -15 50 0 14 9 25 25 25
36 0 24 -26 50 -50 50 -10 0 -26 -7 -34 -16z"/>
<path d="M4210 3937 c0 -76 9 -95 53 -110 20 -7 68 9 79 26 4 7 7 46 6 87 l-1
75 -6 -73 c-5 -57 -10 -77 -25 -88 -23 -17 -40 -18 -67 -4 -16 9 -19 22 -19
85 0 43 -4 75 -10 75 -6 0 -10 -31 -10 -73z"/>
<path d="M4520 3920 c0 -53 4 -90 10 -90 6 0 10 37 10 90 0 53 -4 90 -10 90
-6 0 -10 -37 -10 -90z"/>
<path d="M4900 3920 l0 -90 45 0 c62 0 95 32 95 90 0 58 -33 90 -95 90 l-45 0
0 -90z m102 53 c49 -57 13 -133 -62 -133 -16 0 -19 10 -22 75 l-3 75 36 0 c22
0 42 -7 51 -17z"/>
<path d="M5200 3920 l0 -90 63 2 62 2 -52 3 c-53 4 -53 4 -53 39 0 33 1 34 40
34 22 0 40 5 40 10 0 6 -18 10 -40 10 -37 0 -40 2 -40 29 0 32 24 44 71 34 18
-3 29 -1 29 6 0 7 -22 11 -60 11 l-60 0 0 -90z"/>
<path d="M5492 3998 c-16 -16 -15 -53 1 -65 6 -6 29 -16 50 -23 30 -9 37 -16
35 -32 -5 -35 -34 -46 -68 -26 -31 18 -50 9 -25 -12 20 -16 80 -17 99 -1 35
29 4 91 -46 91 -23 0 -48 27 -42 45 9 22 34 26 65 11 30 -15 38 -9 17 12 -7 7
-26 12 -43 12 -17 0 -36 -5 -43 -12z"/>
<path d="M5760 3920 c0 -53 4 -90 10 -90 6 0 10 37 10 90 0 53 -4 90 -10 90
-6 0 -10 -37 -10 -90z"/>
<path d="M5965 3985 c-18 -17 -25 -35 -25 -63 0 -71 56 -113 122 -90 24 9 28
15 28 49 0 37 -2 39 -30 39 -16 0 -30 -4 -30 -10 0 -5 11 -10 24 -10 19 0 22
-4 18 -25 -5 -30 -42 -43 -78 -26 -79 35 -29 171 52 141 37 -14 49 -13 34 5
-20 25 -87 19 -115 -10z"/>
<path d="M6250 3920 c0 -107 18 -122 22 -19 l3 72 50 -71 c28 -40 56 -72 63
-72 9 0 12 25 12 90 0 53 -4 90 -10 90 -6 0 -10 -30 -10 -70 0 -38 -3 -70 -7
-70 -5 0 -30 32 -56 70 -27 39 -52 70 -58 70 -5 0 -9 -40 -9 -90z"/>
<path d="M6756 3988 c-13 -19 -14 -25 -3 -42 8 -11 27 -24 43 -29 58 -19 72
-49 30 -68 -19 -9 -31 -8 -55 4 -32 16 -41 11 -19 -11 7 -7 29 -12 50 -12 29
0 41 6 54 24 21 34 7 57 -48 76 -48 17 -60 43 -28 60 16 9 28 8 50 -4 31 -15
39 -9 18 12 -20 20 -75 15 -92 -10z"/>
<path d="M7010 4000 c0 -5 14 -10 30 -10 l30 0 1 -82 2 -83 10 83 c9 76 11 82
33 82 12 0 26 5 29 10 4 6 -20 10 -64 10 -41 0 -71 -4 -71 -10z"/>
<path d="M7300 3936 c0 -88 12 -106 70 -106 59 0 70 18 69 108 l-2 77 -7 -74
c-8 -92 -36 -120 -91 -91 -16 9 -19 22 -19 85 0 43 -4 75 -10 75 -6 0 -10 -31
-10 -74z"/>
<path d="M7610 3920 l0 -90 44 0 c64 0 99 31 99 90 0 59 -35 90 -99 90 l-44 0
0 -90z m104 54 c52 -52 13 -134 -65 -134 -17 0 -19 8 -19 75 l0 75 34 0 c19 0
42 -7 50 -16z"/>
<path d="M7918 3983 c-3 -16 -2 -57 2 -93 l7 -65 1 93 c2 93 -2 115 -10 65z"/>
<path d="M8122 3988 c-41 -45 -37 -124 9 -148 35 -19 94 -12 120 16 35 37 33
98 -4 130 -37 32 -95 33 -125 2z m85 2 c31 -11 53 -45 53 -81 0 -28 -44 -69
-75 -69 -14 0 -37 11 -50 25 -39 38 -29 106 18 125 12 5 22 9 23 9 1 1 15 -4
31 -9z"/>
  </g>
</svg>
